<?xml version="1.0" encoding="UTF-8" standalone="no"?>
<svg
   xmlns:dc="http://purl.org/dc/elements/1.1/"
   xmlns:cc="http://creativecommons.org/ns#"
   xmlns:rdf="http://www.w3.org/1999/02/22-rdf-syntax-ns#"
   xmlns:svg="http://www.w3.org/2000/svg"
   xmlns="http://www.w3.org/2000/svg"
   xmlns:sodipodi="http://sodipodi.sourceforge.net/DTD/sodipodi-0.dtd"
   xmlns:inkscape="http://www.inkscape.org/namespaces/inkscape"
   id="svg21277"
   version="1.1"
   viewBox="0 0 216.26315 389.1337"
   height="389.1337mm"
   width="216.26315mm"
   sodipodi:docname="fullrobot.svg"
   inkscape:version="0.92.1 r15371">
  <sodipodi:namedview
     pagecolor="#ffffff"
     bordercolor="#666666"
     borderopacity="1"
     objecttolerance="10"
     gridtolerance="10"
     guidetolerance="10"
     inkscape:pageopacity="0"
     inkscape:pageshadow="2"
     inkscape:window-width="1366"
     inkscape:window-height="706"
     id="namedview4611"
     showgrid="false"
     inkscape:zoom="0.18567528"
     inkscape:cx="1175.503"
     inkscape:cy="655.20198"
     inkscape:window-x="-8"
     inkscape:window-y="-8"
     inkscape:window-maximized="1"
     inkscape:current-layer="layer1"
     inkscape:snap-global="false"
     fit-margin-top="0"
     fit-margin-left="0"
     fit-margin-right="0"
     fit-margin-bottom="0" />
  <defs
     id="defs21271">
    <clipPath
       id="Clip_1">
      <path
         id="path20217"
         d="M 0.3,2.5 H 795 V 825 H 0.3 Z"
         inkscape:connector-curvature="0" />
    </clipPath>
    <clipPath
       id="Clip_2">
      <path
         id="path20220"
         d="M 0.3,2.5 H 795 V 825 H 0.3 Z"
         inkscape:connector-curvature="0" />
    </clipPath>
    <clipPath
       id="Clip_3">
      <path
         id="path20223"
         d="M 0.3,2.5 H 795 V 825 H 0.3 Z"
         inkscape:connector-curvature="0" />
    </clipPath>
    <clipPath
       id="Clip_4">
      <path
         id="path20226"
         d="M 0.3,2.5 H 795 V 825 H 0.3 Z"
         inkscape:connector-curvature="0" />
    </clipPath>
    <clipPath
       id="Clip_5">
      <path
         id="path20229"
         d="M 0.3,2.5 H 795 V 825 H 0.3 Z"
         inkscape:connector-curvature="0" />
    </clipPath>
  </defs>
  <metadata
     id="metadata21274">
    <rdf:RDF>
      <cc:Work
         rdf:about="">
        <dc:format>image/svg+xml</dc:format>
        <dc:type
           rdf:resource="http://purl.org/dc/dcmitype/StillImage" />
        <dc:title></dc:title>
      </cc:Work>
    </rdf:RDF>
  </metadata>
  <g
     id="layer1"
     transform="translate(206.01849,-21.858789)">
    <g
       id="g4727">
      <g
         style="stroke:#1a1919;stroke-opacity:1"
         transform="matrix(0.70989861,0,0,0.73010296,487.92716,-32.704629)"
         id="g21269">
        <g
           style="stroke:#1a1919;stroke-opacity:1"
           transform="translate(-1105.303,-26.663032)"
           id="layer2">
          <path
             d="m 348.25,423.69 c -13.824,7.1509 -26.986,29.258 -27.136,32.285 -0.14987,3.0268 -8.5262,47.312 -7.113,51.734 1.9703,6.1659 3.1465,13.051 13.475,13.815 10.329,0.76429 12.049,-7.4586 15.329,-13.4 12.6,-22.829 14.82,-72.689 12.17,-77.274 -2.6494,-4.5851 -4.0994,-8.5181 -6.7252,-7.1599 z"
             style="fill:#ffffff;stroke:#1a1919;stroke-width:3;stroke-miterlimit:4;stroke-dasharray:none;stroke-opacity:1"
             id="path3689"
             inkscape:connector-curvature="0" />
          <path
             d="m 240.86,412.05 c -0.53705,10.846 -1.6144,14.033 0.18461,16.697 7.0673,10.464 23.103,24.236 36.396,25.823 6.2834,0.75005 20.088,-2.2923 20.541,-6.3155 0.45206,-4.0232 -5.0492,-35.902 -5.0492,-35.902 l -52.072,-0.30277 z"
             style="fill:#666666;stroke:#1a1919;stroke-width:3;stroke-miterlimit:4;stroke-dasharray:none;stroke-opacity:1"
             id="path3897"
             inkscape:connector-curvature="0" />
          <ellipse
             transform="matrix(0.99878,0.049456,-0.049456,0.99878,71.313,182.17)"
             style="fill:#1a1a1a;stroke:#1a1919;stroke-width:2.99998903;stroke-miterlimit:4;stroke-dasharray:none;stroke-opacity:1"
             id="path3901"
             cx="190.89285"
             cy="252.18361"
             rx="15.892858"
             ry="16.25" />
          <ellipse
             transform="matrix(0.99878,0.049456,-0.049456,0.99878,92.836,173.58)"
             style="fill:#1a1a1a;stroke:#1a1919;stroke-width:2.99998903;stroke-miterlimit:4;stroke-dasharray:none;stroke-opacity:1"
             id="path3909"
             cx="190.89285"
             cy="252.18361"
             rx="15.892858"
             ry="16.25" />
          <path
             d="m 252.46,392.4 c -5.2078,-3.9567 -15.767,-1.8622 -17.009,6.4903 -0.91899,6.1795 0.74391,25.827 5.5887,30.113 4.8448,4.2854 -3.7908,-15.359 9.3252,-14.709 8.1341,0.40279 39.909,49.142 51.954,43.534 4.2836,-1.9943 -43.289,-68.775 -49.858,-65.428 z"
             style="fill:#999999;stroke:#1a1919;stroke-width:3;stroke-miterlimit:4;stroke-dasharray:none;stroke-opacity:1"
             id="path3895"
             inkscape:connector-curvature="0" />
          <g
             style="stroke:#1a1919;stroke-opacity:1"
             id="g21167"
             transform="matrix(-1,0,0,1,569.4676,2.3048)">
            <ellipse
               transform="matrix(0.68468,0.033903,-0.033903,0.68468,238.86,432.09)"
               style="fill:#1a1a1a;stroke:#1a1919;stroke-width:4.37624741;stroke-miterlimit:4;stroke-dasharray:none;stroke-opacity:1"
               id="ellipse21151"
               cx="190.89285"
               cy="252.18361"
               rx="15.892858"
               ry="16.25" />
            <path
               d="m 306.1,611.24 c 1.2511,5.3718 2.1465,8.0046 5.3142,10.124 8.6625,1.7902 39.233,4.1704 46.17,2.0334 2.8234,-1.7108 4.0103,-2.3132 3.8809,-6.8876 -0.13439,-4.7511 -1.3132,-9.5479 -2.8443,-14.047 -1.9926,-5.8556 -8.8022,-3.9585 -12.689,-4.1682 -12.16,-0.65591 -21.163,7.998 -33.579,9.2097 -4.3305,0.42264 -6.658,1.9987 -6.2533,3.7359 z"
               style="fill:#ffffff;stroke:#1a1919;stroke-width:3;stroke-miterlimit:4;stroke-dasharray:none;stroke-opacity:1"
               id="path21153"
               inkscape:connector-curvature="0" />
            <ellipse
               transform="matrix(0.83214,0.041204,-0.041204,0.83214,186.85,301.36)"
               style="fill:#1a1a1a;stroke:#1a1919;stroke-width:3.60075116;stroke-miterlimit:4;stroke-dasharray:none;stroke-opacity:1"
               id="ellipse21155"
               cx="190.89285"
               cy="252.18361"
               rx="15.892858"
               ry="16.25" />
            <path
               d="m 347.73,506.6 c -0.77054,14.522 -25.026,40.733 -27.446,43.648 -2.4199,2.9143 -5.4318,7.5693 -5.9463,12.854 -0.51451,5.2843 -6.3323,30.863 -6.6408,37.093 -0.32473,6.558 3.232,7.4722 7.9489,7.979 8.6892,0.9336 21.41,-5.5764 28.824,-10.204 4.6554,-2.9057 10.783,-6.3759 11.458,-11.822 2.3842,-19.253 1.9401,-53.622 -0.089,-79.904 -0.37419,-4.8468 -7.7083,-7.1908 -8.1088,0.35703 z"
               style="fill:#ffffff;stroke:#1a1919;stroke-width:3;stroke-miterlimit:4;stroke-dasharray:none;stroke-opacity:1"
               id="path21157"
               inkscape:connector-curvature="0" />
            <path
               d="m 362.29,599.86 c -0.48709,9.8369 3.1102,26.062 7.8063,26.177 10.102,0.24735 37.633,2.9282 45.049,4.2535 9.532,1.7033 12.049,-4.1698 14.372,-9.4022 2.5119,-5.6586 1.4877,-13.964 -2.8842,-18.348 -12.558,-12.591 -32.389,-9.0036 -50.159,-8.2992 -3.8591,0.15298 -13.994,1.7614 -14.185,5.6188 z"
               style="fill:#ffffff;stroke:#1a1919;stroke-width:3;stroke-miterlimit:4;stroke-dasharray:none;stroke-opacity:1"
               id="path21159"
               inkscape:connector-curvature="0" />
            <path
               d="m 336.19,530.63 c -6.9097,9.6623 -14.588,18.038 -15.896,19.613 -2.4199,2.9143 -5.4406,7.5619 -5.9551,12.846 -0.51451,5.2843 -6.3466,30.862 -6.655,37.091 -0.32473,6.558 3.2411,7.4903 7.958,7.9971 7.6648,0.82353 18.455,-4.1476 25.984,-8.5066 l 1.4968,-67.509 c 0,0 -3.581,2.8867 -6.9327,-1.5322 z"
               style="fill:#999999;stroke:#1a1919;stroke-width:3;stroke-miterlimit:4;stroke-dasharray:none;stroke-opacity:1"
               id="path21161"
               inkscape:connector-curvature="0" />
            <path
               d="m 342.44,598.37 c -10.464,0.91168 -18.887,8.0556 -30.083,9.1484 -4.3305,0.42264 -6.6591,1.9892 -6.2544,3.7265 1.2511,5.3717 2.1509,7.9996 5.3186,10.119 8.6625,1.7903 39.238,4.1732 46.175,2.0361 2.8234,-1.7108 4.0056,-2.3048 3.8762,-6.8792 -0.13439,-4.7511 -1.308,-9.5643 -2.8392,-14.064 -0.13001,-0.38208 -0.31226,-0.70625 -0.48114,-1.025 -5.4136,1.934 -14.296,3.7284 -15.712,-3.062 z"
               style="fill:#999999;stroke:#1a1919;stroke-width:3;stroke-miterlimit:4;stroke-dasharray:none;stroke-opacity:1"
               id="path21163"
               inkscape:connector-curvature="0" />
            <path
               d="m 394.22,604.18 c -11.221,-0.51319 -24.445,-0.41387 -31.891,0.17299 0.52303,9.6101 3.749,21.594 7.7804,21.693 10.102,0.24735 37.617,2.9071 45.033,4.2323 2.0711,0.37009 3.8038,0.36612 5.2825,0.10513 -1.4775,-9.5459 -3.9841,-22.104 -7.176,-23.79 -2.2868,-1.2083 -9.9911,-1.9995 -19.029,-2.4128 z"
               style="fill:#999999;stroke:#1a1919;stroke-width:3;stroke-miterlimit:4;stroke-dasharray:none;stroke-opacity:1"
               id="path21165"
               inkscape:connector-curvature="0" />
          </g>
          <path
             d="m 244.4,452.93 c 0.80908,4.0856 18.539,54.522 14.054,63.402 -4.4853,8.8804 -17.087,28.484 -24.934,23.544 -7.8465,-4.9398 -19.189,-41.406 -16.846,-47.864 2.3426,-6.458 7.011,-55.039 7.011,-55.039 8.7208,4.0752 14.501,8.5164 20.715,15.956 z"
             style="fill:#ffffff;stroke:#1a1919;stroke-width:3;stroke-miterlimit:4;stroke-dasharray:none;stroke-opacity:1"
             id="path3911"
             inkscape:connector-curvature="0" />
          <path
             d="m 223.42,435 c -2.2744,-1.0066 -2.2908,1.5278 -2.4294,3.1348 -2.9782,35.453 -9.6648,82.929 12.287,102.8 5.2631,3.3134 13.252,-5.2829 18.91,-13.412 -10.18,-28.417 -15.63,-58.25 -22.114,-87.598 -2.3794,-1.5708 -3.9709,-3.671 -6.653,-4.9243 z"
             style="fill:#999999;stroke:#1a1919;stroke-width:3;stroke-miterlimit:4;stroke-dasharray:none;stroke-opacity:1"
             id="path3674"
             inkscape:connector-curvature="0" />
          <path
             d="m 349.2,423.42 c -0.29612,0.0135 -0.62359,0.096 -0.95181,0.26576 -13.824,7.1509 -26.98,29.265 -27.13,32.292 -0.0236,0.47702 -0.29467,2.2014 -0.65642,4.4104 l 19.153,8.1134 16.331,-27.132 c 0.018,-5.5127 -0.29881,-9.403 -0.94921,-10.529 -2.3182,-4.012 -3.7235,-7.5152 -5.7963,-7.4208 z"
             style="fill:#cccccc;stroke:#1a1919;stroke-width:3;stroke-miterlimit:4;stroke-dasharray:none;stroke-opacity:1"
             id="path3896"
             inkscape:connector-curvature="0" />
          <ellipse
             transform="matrix(0.99878,0.049456,-0.049456,0.99878,155.92,177.77)"
             style="fill:#1a1a1a;stroke:#1a1919;stroke-width:2.99998903;stroke-miterlimit:4;stroke-dasharray:none;stroke-opacity:1"
             id="path3905"
             cx="190.89285"
             cy="252.18361"
             rx="15.892858"
             ry="16.25" />
          <path
             d="m 248.51,390.43 c 23.255,0.14012 92.566,-0.47342 94.459,2.1488 1.8929,2.6222 -0.44236,20.897 -5.1299,32.11 -4.1278,9.8743 -18.925,34.866 -29.544,34.947 -15.1,0.11556 -29.049,-31.176 -32.53,-37.515 -7.4219,-13.516 -27.255,-31.691 -27.255,-31.691 z"
             style="fill:#d7d8d6;fill-opacity:1;stroke:#1a1919;stroke-width:3;stroke-miterlimit:4;stroke-dasharray:none;stroke-opacity:1"
             id="path3893"
             inkscape:connector-curvature="0" />
          <path
             d="m 321.7,454.19 c -3.2987,17.559 -7.209,35.587 -7.688,53.529 1.9703,6.1659 3.1297,13.043 13.459,13.808 4.0265,0.29789 6.7488,-0.77257 8.7613,-2.5386 -1.6362,-2.5565 -1.7272,-7.147 -1.8519,-9.6302 -0.36016,-7.1694 11.88,-51.981 11.88,-51.981 0,0 -15.624,8.6812 -24.56,-3.1873 z"
             style="fill:#999999;stroke:#1a1919;stroke-width:3;stroke-miterlimit:4;stroke-dasharray:none;stroke-opacity:1"
             id="path3890"
             inkscape:connector-curvature="0" />
          <g
             style="stroke:#1a1919;stroke-opacity:1"
             id="g21149">
            <ellipse
               ry="16.25"
               rx="15.892858"
               cy="252.18361"
               cx="190.89285"
               id="path3699"
               style="fill:#1a1a1a;stroke:#1a1919;stroke-width:4.37624741;stroke-miterlimit:4;stroke-dasharray:none;stroke-opacity:1"
               transform="matrix(0.68468,0.033903,-0.033903,0.68468,238.86,432.09)" />
            <path
               id="path3697"
               style="fill:#ffffff;stroke:#1a1919;stroke-width:3;stroke-miterlimit:4;stroke-dasharray:none;stroke-opacity:1"
               d="m 306.1,611.24 c 1.2511,5.3718 2.1465,8.0046 5.3142,10.124 8.6625,1.7902 39.233,4.1704 46.17,2.0334 2.8234,-1.7108 4.0103,-2.3132 3.8809,-6.8876 -0.13439,-4.7511 -1.3132,-9.5479 -2.8443,-14.047 -1.9926,-5.8556 -8.8022,-3.9585 -12.689,-4.1682 -12.16,-0.65591 -21.163,7.998 -33.579,9.2097 -4.3305,0.42264 -6.658,1.9987 -6.2533,3.7359 z"
               inkscape:connector-curvature="0" />
            <ellipse
               ry="16.25"
               rx="15.892858"
               cy="252.18361"
               cx="190.89285"
               id="path3691"
               style="fill:#1a1a1a;stroke:#1a1919;stroke-width:3.60075116;stroke-miterlimit:4;stroke-dasharray:none;stroke-opacity:1"
               transform="matrix(0.83214,0.041204,-0.041204,0.83214,186.85,301.36)" />
            <path
               id="path3693"
               style="fill:#ffffff;stroke:#1a1919;stroke-width:3;stroke-miterlimit:4;stroke-dasharray:none;stroke-opacity:1"
               d="m 347.73,506.6 c -0.77054,14.522 -25.026,40.733 -27.446,43.648 -2.4199,2.9143 -5.4318,7.5693 -5.9463,12.854 -0.51451,5.2843 -6.3323,30.863 -6.6408,37.093 -0.32473,6.558 3.232,7.4722 7.9489,7.979 8.6892,0.9336 21.41,-5.5764 28.824,-10.204 4.6554,-2.9057 10.783,-6.3759 11.458,-11.822 2.3842,-19.253 1.9401,-53.622 -0.089,-79.904 -0.37419,-4.8468 -7.7083,-7.1908 -8.1088,0.35703 z"
               inkscape:connector-curvature="0" />
            <path
               id="path3695"
               style="fill:#ffffff;stroke:#1a1919;stroke-width:3;stroke-miterlimit:4;stroke-dasharray:none;stroke-opacity:1"
               d="m 362.29,599.86 c -0.48709,9.8369 3.1102,26.062 7.8063,26.177 10.102,0.24735 37.633,2.9282 45.049,4.2535 9.532,1.7033 12.049,-4.1698 14.372,-9.4022 2.5119,-5.6586 1.4877,-13.964 -2.8842,-18.348 -12.558,-12.591 -32.389,-9.0036 -50.159,-8.2992 -3.8591,0.15298 -13.994,1.7614 -14.185,5.6188 z"
               inkscape:connector-curvature="0" />
            <path
               id="path3902"
               style="fill:#999999;stroke:#1a1919;stroke-width:3;stroke-miterlimit:4;stroke-dasharray:none;stroke-opacity:1"
               d="m 336.19,530.63 c -6.9097,9.6623 -14.588,18.038 -15.896,19.613 -2.4199,2.9143 -5.4406,7.5619 -5.9551,12.846 -0.51451,5.2843 -6.3466,30.862 -6.655,37.091 -0.32473,6.558 3.2411,7.4903 7.958,7.9971 7.6648,0.82353 18.455,-4.1476 25.984,-8.5066 l 1.4968,-67.509 c 0,0 -3.581,2.8867 -6.9327,-1.5322 z"
               inkscape:connector-curvature="0" />
            <path
               id="path3907"
               style="fill:#999999;stroke:#1a1919;stroke-width:3;stroke-miterlimit:4;stroke-dasharray:none;stroke-opacity:1"
               d="m 342.44,598.37 c -10.464,0.91168 -18.887,8.0556 -30.083,9.1484 -4.3305,0.42264 -6.6591,1.9892 -6.2544,3.7265 1.2511,5.3717 2.1509,7.9996 5.3186,10.119 8.6625,1.7903 39.238,4.1732 46.175,2.0361 2.8234,-1.7108 4.0056,-2.3048 3.8762,-6.8792 -0.13439,-4.7511 -1.308,-9.5643 -2.8392,-14.064 -0.13001,-0.38208 -0.31226,-0.70625 -0.48114,-1.025 -5.4136,1.934 -14.296,3.7284 -15.712,-3.062 z"
               inkscape:connector-curvature="0" />
            <path
               id="path3913"
               style="fill:#999999;stroke:#1a1919;stroke-width:3;stroke-miterlimit:4;stroke-dasharray:none;stroke-opacity:1"
               d="m 394.22,604.18 c -11.221,-0.51319 -24.445,-0.41387 -31.891,0.17299 0.52303,9.6101 3.749,21.594 7.7804,21.693 10.102,0.24735 37.617,2.9071 45.033,4.2323 2.0711,0.37009 3.8038,0.36612 5.2825,0.10513 -1.4775,-9.5459 -3.9841,-22.104 -7.176,-23.79 -2.2868,-1.2083 -9.9911,-1.9995 -19.029,-2.4128 z"
               inkscape:connector-curvature="0" />
          </g>
          <ellipse
             transform="matrix(0.9533,0.30201,-0.30201,0.9533,140.09,142.75)"
             style="fill:#ffffff;stroke:#1a1919;stroke-width:3.00001359;stroke-miterlimit:4;stroke-dasharray:none;stroke-opacity:1"
             id="path4023"
             cx="195.75589"
             cy="241.49167"
             rx="3.3085501"
             ry="1.9299877" />
          <ellipse
             transform="matrix(0.9533,0.30201,-0.30201,0.9533,228.23,141.05)"
             style="fill:#ffffff;stroke:#1a1919;stroke-width:3.00001359;stroke-miterlimit:4;stroke-dasharray:none;stroke-opacity:1"
             id="path4025"
             cx="195.75589"
             cy="241.49167"
             rx="3.3085501"
             ry="1.9299877" />
        </g>
      </g>
      <g
         transform="matrix(0.26458333,0,0,0.26458333,-211.73287,13.66332)"
         clip-path="url(#Clip_1)"
         id="g20236">
        <path
           inkscape:connector-curvature="0"
           d="m 283.68,216.45 c -37.49,7.35 -64.07,43.68 -60.475,84.705 3.59,41.035 36.08,72.18 74.28,72.895 M 626.66,138.105 c 23.005,64.82 25.42,212.5 -17.08,275 -38.37,56.425 -78.75,75 -146.25,75 -67.5,0 -107.88,-18.575 -146.25,-75 -42.5,-62.5 -40.085,-210.18 -17.08,-275 27.5,-77.5 92.91,-100.63 162.08,-100.63 69.17,0 137.08,23.13 164.58,100.63 z m 14.94,78.235 c 37.555,7.02 64.455,43.115 61.215,84.17 -3.235,41.065 -35.45,72.49 -73.64,73.54 M 438.79,513.48 310.835,556.665 c 0,0 -11.67,128.125 30,269.795 M 255.7,663.12 c -7.79,-11.01 -12.365,-24.445 -12.365,-38.955 0,-37.28 30.22,-67.5 67.5,-67.5 m 0,135 c -7.405,0 -14.53,-1.19 -21.2,-3.39 m 198.075,-200.57 1.105,24.795 c 0,0 -6.865,6.665 -23.52,6.665 h -3.92 c -16.66,0 -23.52,-6.665 -23.52,-6.665 l 0.895,-24.58 m 48.685,25.41 128.4,43.335 c 0,0 11.665,128.125 -30,269.795 m 30,-134.795 c 37.28,0 67.5,-30.215 67.5,-67.5 0,-37.28 -30.22,-67.5 -67.5,-67.5 M 547.5,535.835 c 0,0 -29.995,26.665 -83.33,26.665 h -1.67 c -53.335,0 -83.33,-26.665 -83.33,-26.665 M 163.05,742.94 c 0.48,-0.47 0.97,-0.935 1.47,-1.385 m 31.7,-10.56 c 21.385,1.885 38.155,19.84 38.155,41.715 0,23.125 -18.75,41.875 -41.875,41.875 -23.125,0 -41.875,-18.75 -41.875,-41.875 0,-11.645 4.75,-22.175 12.425,-29.77 M 135.81,593.465 c 45.05,-9.215 54.825,-31.1 59.02,-57.175 3.98,-24.77 1.5,-40.09 -5.49,-47.87 -9.575,-10.655 -61.81,-21.245 -78.065,-24.24 -16.255,-2.99 -27.24,5.255 -18.02,24.58 9.45,19.795 38.115,18.05 55.165,18.39 0,0 -17.94,14.7 -21.98,37.815 -7.06,40.4 9.37,48.5 9.37,48.5 z m -80.075,-46.76 c 0,0 -1.055,25.44 24.055,43.245 18.025,12.78 37.415,9.33 56.02,3.515 M 95.015,466.44 c -0.415,-8.615 0.655,-16.31 3.77,-21.305 8.115,-13.03 28.575,-12.62 33.815,-4.76 7.555,11.34 9.895,29.18 9.895,29.18 m -8.82,55.09 c 0,0 -8.105,6.365 -21.2,-7.64 -3.845,-4.11 -7.45,-10.645 -10.385,-18.225 m -6.095,-48.71 c -9.075,-4.31 -31.535,-0.48 -33.505,18.245 -1.945,18.36 8.265,55.65 23.875,66.09 15.61,10.445 26.98,-3.015 30.18,-12.725 m -33.31,10.635 C 83.51,541.04 79.57,554.71 62.375,549.56 45.18,544.415 31.925,518.4 28.34,494.26 25.295,473.77 48.38,466.37 61.28,473.84 m 73.08,-30.2 c 0,0 -11.845,-105.61 -6.655,-124.83 5.49,-20.31 35.99,-21.74 39.99,1.725 4,23.465 10.415,159.98 10.415,159.98 m -21.545,110.29 41.77,151.695 c 0,0 -8.235,15.73 -31.775,9.27 L 126.565,598.305 M 235,764.165 l 60,-83.33 c 0,0 0,-31.25 -35.835,-23.335 l -47.5,75.835 M 635,689.585 658.75,828.335 M 671.875,663.96 697.5,828.335"
           id="path20234"
           style="fill-opacity:0;stroke:#1a1919;stroke-width:13;stroke-linecap:round;stroke-linejoin:round" />
      </g>
      <path
         inkscape:connector-curvature="0"
         d="m -41.976205,70.903278 c 9.936426,1.857375 17.053718,11.40751 16.196468,22.269978 -0.855927,10.865114 -9.379479,19.179644 -19.483916,19.457454"
         id="path20238"
         style="fill:#df516c;stroke-width:0.26458332" />
      <path
         inkscape:connector-curvature="0"
         d="m -48.793195,160.9476 c 9.863667,0 17.859375,7.99571 17.859375,17.85937 0,9.86499 -7.995708,17.85938 -17.859375,17.85938 l -7.276042,-0.21961 1.984375,-30.20747 5.291667,-5.29167"
         id="path20240"
         style="fill:#9e9f9e;stroke-width:0.26458332" />
      <g
         transform="matrix(0.26458333,0,0,0.26458333,-211.73287,13.66332)"
         clip-path="url(#Clip_2)"
         id="g20246">
        <path
           inkscape:connector-curvature="0"
           d="m 310.835,691.665 c -7.405,0 -14.53,-1.19 -21.2,-3.39 L 255.7,663.12 c -7.79,-11.01 -12.365,-24.445 -12.365,-38.955 0,-37.28 30.22,-67.5 67.5,-67.5 L 342.5,637.5 310.835,691.665"
           id="path20242"
           style="fill:#9e9f9e" />
        <path
           inkscape:connector-curvature="0"
           d="m 585.835,826.46 c 41.665,-141.67 30,-269.795 30,-269.795 l -128.4,-43.335 -48.645,0.15 -127.955,43.185 c 0,0 -11.67,128.125 30,269.795 h 245"
           id="path20244"
           style="fill:#d7d8d6" />
      </g>
      <path
         inkscape:connector-curvature="0"
         d="m -168.59256,210.23286 c 0.127,-0.12435 0.25665,-0.24739 0.38894,-0.36645"
         id="path20248"
         style="fill:#d7d8d6;stroke-width:0.26458332" />
      <path
         inkscape:connector-curvature="0"
         d="m -159.81633,207.07241 c 5.65812,0.49874 10.09518,5.24933 10.09518,11.03709 0,6.11849 -4.96094,11.07943 -11.07943,11.07943 -6.11849,0 -11.07943,-4.96094 -11.07943,-11.07943 0,-3.08107 1.25677,-5.86713 3.28745,-7.87664"
         id="path20250"
         style="fill:#9e9f9e;stroke-width:0.26458332" />
      <path
         inkscape:connector-curvature="0"
         d="m -175.79981,170.68427 c 11.3546,-2.60218 14.34174,-7.83299 15.50723,-14.19887 1.19459,-6.52859 0.50536,-11.53583 -1.34408,-13.59429 -2.53339,-2.81914 -16.3539,-5.62107 -20.6547,-6.4135 -4.3008,-0.7911 -7.20725,1.39039 -4.76779,6.50346 2.50031,5.23743 10.08459,4.77573 14.59574,4.86569 0,0 -4.74663,3.88937 -5.81554,10.00521 -1.86796,10.68917 2.47914,12.8323 2.47914,12.8323"
         id="path20252"
         style="fill:#9e9f9e;stroke-width:0.26458332" />
      <path
         inkscape:connector-curvature="0"
         d="m -186.59348,137.07557 c -0.10981,-2.27939 0.1733,-4.31536 0.99747,-5.63695 2.1471,-3.44752 7.56047,-3.33904 8.94689,-1.25942 1.99893,3.00038 2.61805,7.72055 2.61805,7.72055"
         id="path20254"
         style="fill:#9e9f9e;stroke-width:0.26458332" />
      <path
         inkscape:connector-curvature="0"
         d="m -186.33419,132.74434 c -2.4011,-1.14035 -8.34364,-0.127 -8.86487,4.82732 -0.51461,4.85775 2.18678,14.72406 6.31693,17.48631 4.13015,2.76358 7.13846,-0.79771 7.98512,-3.36682"
         id="path20256"
         style="fill:#9e9f9e;stroke-width:0.26458332" />
      <path
         inkscape:connector-curvature="0"
         d="m -195.5192,139.03349 c -3.41313,-1.97644 -9.52103,-0.0185 -8.71538,5.40279 0.94853,6.38704 4.45558,13.27017 9.0051,14.63145 4.54951,1.36261 5.59196,-2.25425 5.5192,-4.56273"
         id="path20258"
         style="fill:#9e9f9e;stroke-width:0.26458332" />
      <path
         inkscape:connector-curvature="0"
         d="m -196.98632,158.31235 c 0,0 0.31486,6.42805 6.36455,11.44191 4.96226,4.11427 9.89939,2.46856 14.82196,0.93001 l 10.13222,-19.84772 -4.4794,-5.9862 -19.67838,0.24871 c 0,0 -7.54195,10.22217 -7.16095,13.21329"
         id="path20260"
         style="fill:#9e9f9e;stroke-width:0.26458332" />
      <path
         inkscape:connector-curvature="0"
         d="m -164.60793,140.79958 c 0,0 -1.5875,-36.45562 -2.64584,-42.664063 -1.05833,-6.208448 -8.29865,-5.208323 -10.58068,-0.457729 -2.27939,4.750592 1.37583,30.469412 1.37583,30.469412 l 1.43272,10.17191 10.41797,2.48047"
         id="path20262"
         style="fill:#9e9f9e;stroke-width:0.26458332" />
      <path
         inkscape:connector-curvature="0"
         d="m -170.30838,169.98047 11.05164,40.13597 c 0,0 -2.17884,4.1619 -8.40713,2.45269 l -10.58201,-40.60428"
         id="path20264"
         style="fill:#fffffe;stroke-width:0.26458332" />
      <g
         transform="matrix(0.26458333,0,0,0.26458333,-211.73287,13.66332)"
         clip-path="url(#Clip_3)"
         id="g20270">
        <path
           inkscape:connector-curvature="0"
           d="m 235,764.165 60,-83.33 c 0,0 0,-31.25 -35.835,-23.335 l -47.5,75.835 23.335,30.83"
           id="path20266"
           style="fill:#fffffe" />
        <path
           inkscape:connector-curvature="0"
           d="M 671.875,663.96 697.5,828.335 H 658.75 L 635,689.585 671.875,663.96"
           id="path20268"
           style="fill:#fffffe" />
      </g>
      <path
         inkscape:connector-curvature="0"
         d="m -95.567559,142.47439 -0.316177,6.78789 -15.527074,6.17405 c 0,0 7.93618,7.05511 22.04773,7.05511 h 0.441854 c 14.111552,0 22.047729,-7.05511 22.047729,-7.05511 l -15.527073,-6.17405 -0.333375,-6.78789"
         id="path20272"
         style="fill:#9e9f9e;stroke-width:0.26458332" />
      <path
         inkscape:connector-curvature="0"
         d="m -133.0233,112.63071 c -10.10708,-0.18917 -18.70339,-8.42962 -19.65325,-19.286797 -0.95117,-10.854531 6.08145,-20.466844 16.00068,-22.411531 l 3.43561,2.923646 2.86676,35.497822 -2.6498,3.27686"
         id="path20274"
         style="fill:#df516c;stroke-width:0.26458332" />
      <path
         inkscape:connector-curvature="0"
         d="m -150.69217,98.414652 c -0.95118,-10.854531 6.08144,-20.46552 16.00067,-22.410208 l 1.74493,1.484313 -0.29369,-3.632729 -3.43561,-2.923646 c -9.91923,1.944687 -16.95185,11.557 -16.00068,22.411531 0.27385,3.124729 1.19592,6.020593 2.59027,8.581757 -0.28575,-1.13506 -0.50006,-2.303195 -0.60589,-3.511018"
         id="path20276"
         style="fill:#ea8c9b;stroke-width:0.26458332" />
      <path
         inkscape:connector-curvature="0"
         d="m -26.71107,98.414652 c 0.951177,-10.854531 -6.081448,-20.46552 -16.000677,-22.410208 l -1.744927,1.484313 0.292364,-3.632729 3.436938,-2.923646 c 9.919229,1.944687 16.951854,11.557 16.000677,22.411531 -0.273844,3.124729 -1.195917,6.020593 -2.591594,8.581757 0.287073,-1.13506 0.501385,-2.303195 0.607219,-3.511018"
         id="path20278"
         style="fill:#ea8c9b;stroke-width:0.26458332" />
      <path
         inkscape:connector-curvature="0"
         d="m -45.92908,50.203601 c 6.086739,17.150291 6.725708,56.223959 -4.519084,72.760419 -10.152062,14.92911 -20.835937,19.84375 -38.695312,19.84375 -17.859374,0 -28.543254,-4.91464 -38.695314,-19.84375 -11.24479,-16.53646 -10.60582,-55.610128 -4.51908,-72.760419 7.27604,-20.505208 24.58244,-26.625021 42.883665,-26.625021 18.301229,0 36.269083,6.119813 43.545125,26.625021"
         id="path20280"
         style="fill:#d7d8d6;stroke-width:0.26458332" />
      <path
         inkscape:connector-curvature="0"
         d="m -130.11156,56.644882 c 7.63058,-20.505208 25.781,-26.625021 44.975199,-26.625021 12.472458,0 24.794104,2.588948 33.99102,10.025063 C -60.02608,27.60157 -74.64034,23.57858 -89.474205,23.57858 c -18.301225,0 -35.607625,6.119813 -42.883665,26.625021 -5.41999,15.274395 -6.51272,47.923978 1.25545,66.569169 -5.54038,-19.00767 -4.08385,-46.491263 0.99086,-60.127888"
         id="path20282"
         style="fill:#fffffe;stroke-width:0.26458332" />
      <path
         inkscape:connector-curvature="0"
         d="m -96.542549,89.242871 c 0,7.844896 -6.342061,14.204159 -14.165791,14.204159 -7.82373,0 -14.16447,-6.359263 -14.16447,-14.204159 0,-7.844896 6.34074,-14.202833 14.16447,-14.202833 7.82373,0 14.165791,6.357937 14.165791,14.202833"
         id="path20284"
         style="fill:#fffffe;stroke-width:0.26458332" />
      <path
         inkscape:connector-curvature="0"
         d="m -81.744403,89.242871 c 0,7.844896 6.344708,14.204159 14.167115,14.204159 7.823729,0 14.165791,-6.359263 14.165791,-14.204159 0,-7.844896 -6.342062,-14.202833 -14.165791,-14.202833 -7.822407,0 -14.167115,6.357937 -14.167115,14.202833"
         id="path20286"
         style="fill:#fffffe;stroke-width:0.26458332" />
      <path
         inkscape:connector-curvature="0"
         d="m -63.179914,207.42431 c 0,1.23825 -1.013354,2.2516 -2.250281,2.2516 h -47.423915 c -1.23825,0 -2.25028,-1.01335 -2.25028,-2.2516 v -23.27937 c 0,-1.23825 1.01203,-2.25028 2.25028,-2.25028 h 47.423915 c 1.236927,0 2.250281,1.01203 2.250281,2.25028 v 23.27937"
         id="path20288"
         style="fill:#fffffe;stroke-width:0.26458332" />
      <path
         inkscape:connector-curvature="0"
         d="m -63.179914,207.42431 c 0,1.23825 -1.013354,2.2516 -2.250281,2.2516 h -47.423915 c -1.23825,0 -2.25028,-1.01335 -2.25028,-2.2516 v -23.27937 c 0,-1.23825 1.01203,-2.25028 2.25028,-2.25028 h 47.423915 c 1.236927,0 2.250281,1.01203 2.250281,2.25028 z"
         id="path20290"
         style="fill-opacity:0;stroke:#1a1919;stroke-width:1.58749998" />
      <path
         inkscape:connector-curvature="0"
         d="m -104.30939,194.98757 h 2.76622 c 0.88238,0 1.596757,-0.7157 1.596757,-1.59809 v -3.02683 c 0,-0.35851 -0.285747,-0.64426 -0.642937,-0.64426 h -3.72004 z m 4.362977,12.01473 v -7.05644 c 0,-0.88239 -0.714377,-1.57295 -1.596757,-1.57295 h -2.76622 v 8.62939 h -3.38402 v -20.66925 h 7.937497 c 1.763448,0 3.196167,1.43007 3.196167,3.19484 v 3.95684 c 0,1.76478 -1.432719,3.19485 -3.196167,3.19485 1.763448,0 3.196167,1.40758 3.196167,3.17103 v 7.15169 h -3.386667"
         id="path20292"
         style="fill:#1a1919;stroke-width:0.26458332" />
      <path
         inkscape:connector-curvature="0"
         d="m -85.477674,202.04401 v -10.72754 c 0,-0.88238 -0.714375,-1.59808 -1.59676,-1.59808 h -1.191948 c -0.882385,0 -1.572948,0.7157 -1.572948,1.59808 v 10.72754 c 0,0.88238 0.690563,1.57294 1.572948,1.57294 h 1.191948 c 0.882385,0 1.59676,-0.69056 1.59676,-1.57294 z m -2.977885,-15.71096 h 1.59676 c 2.622021,0 4.767792,2.14577 4.767792,4.76779 v 11.13367 c 0,2.64583 -2.145771,4.76779 -4.767792,4.76779 h -1.59676 c -2.647156,0 -4.769115,-2.12196 -4.769115,-4.76779 v -11.13367 c 0,-2.62202 2.121959,-4.76779 4.769115,-4.76779"
         id="path20294"
         style="fill:#1a1919;stroke-width:0.26458332" />
      <path
         inkscape:connector-curvature="0"
         d="m -78.754611,189.71839 v -3.38534 h 3.264958 c 1.764771,0 3.194844,1.43007 3.194844,3.19484 v 17.47441 h -3.385344 v -16.63965 c 0,-0.35851 -0.28575,-0.64426 -0.64426,-0.64426 h -2.430198"
         id="path20296"
         style="fill:#1a1919;stroke-width:0.26458332" />
      <path
         inkscape:connector-curvature="0"
         d="m -109.62752,186.02216 c 0,0.87313 -0.70908,1.57956 -1.58221,1.57956 -0.87312,0 -1.5822,-0.70643 -1.5822,-1.57956 0,-0.87445 0.70908,-1.58221 1.5822,-1.58221 0.87313,0 1.58221,0.70776 1.58221,1.58221"
         id="path20298"
         style="fill:#1a1919;stroke-width:0.26458332" />
      <path
         inkscape:connector-curvature="0"
         d="m -109.62752,205.87253 c 0,0.87312 -0.70908,1.57956 -1.58221,1.57956 -0.87312,0 -1.5822,-0.70644 -1.5822,-1.57956 0,-0.87445 0.70908,-1.58221 1.5822,-1.58221 0.87313,0 1.58221,0.70776 1.58221,1.58221"
         id="path20300"
         style="fill:#1a1919;stroke-width:0.26458332" />
      <path
         inkscape:connector-curvature="0"
         d="m -65.325684,186.02216 c 0,0.87313 -0.707761,1.57956 -1.580886,1.57956 -0.874448,0 -1.582208,-0.70643 -1.582208,-1.57956 0,-0.87445 0.70776,-1.58221 1.582208,-1.58221 0.873125,0 1.580886,0.70776 1.580886,1.58221"
         id="path20302"
         style="fill:#1a1919;stroke-width:0.26458332" />
      <path
         inkscape:connector-curvature="0"
         d="m -65.325684,205.87253 c 0,0.87312 -0.707761,1.57956 -1.580886,1.57956 -0.874448,0 -1.582208,-0.70644 -1.582208,-1.57956 0,-0.87445 0.70776,-1.58221 1.582208,-1.58221 0.873125,0 1.580886,0.70776 1.580886,1.58221"
         id="path20304"
         style="fill:#1a1919;stroke-width:0.26458332" />
      <path
         inkscape:connector-curvature="0"
         d="m -178.32922,172.13815 7.9375,-2.8112 0.90884,3.55468 c 0,0 -2.23176,4.54819 -7.68879,5.37501 l -1.15755,-6.11849"
         id="path20306"
         style="fill:#cbcccb;stroke-width:0.26458332" />
      <path
         inkscape:connector-curvature="0"
         d="m -43.722455,196.11602 9.75651,-6.77995 0.628385,6.86594 c 0,0 -3.803385,4.46484 -9.095052,5.45703 l -1.289843,-5.54302"
         id="path20308"
         style="fill:#cbcccb;stroke-width:0.26458332" />
      <path
         inkscape:connector-curvature="0"
         d="m -95.977663,142.97975 13.671021,0.1098 -0.0013,3.41709 c 0,0 -5.622396,3.74782 -13.669698,2.14974 v -5.67663"
         id="path20310"
         style="fill:#777776;stroke-width:0.26458332" />
      <path
         inkscape:connector-curvature="0"
         d="m -105.73153,37.321038 c 1.38245,2.65774 -0.93795,6.607969 -5.18583,8.821209 -4.24921,2.211916 -8.81459,1.852083 -10.19969,-0.808302 -1.38509,-2.659063 0.93663,-6.606646 5.18451,-8.819886 4.24921,-2.213239 8.8146,-1.852083 10.20101,0.806979"
         id="path20312"
         style="fill:#fffffe;stroke-width:0.26458332" />
      <path
         inkscape:connector-curvature="0"
         d="m -134.5936,166.7433 c 0.96573,1.60073 -0.32147,4.14866 -2.87867,5.69383 -2.55719,1.54517 -5.41205,1.50019 -6.3791,-0.10054 -0.96573,-1.59941 0.32279,-4.14734 2.87999,-5.69251 2.55587,-1.54517 5.41205,-1.50151 6.37778,0.0992"
         id="path20314"
         style="fill:#d7d8d6;stroke-width:0.26458332" />
      <path
         inkscape:connector-curvature="0"
         d="m -129.49111,160.9476 18.0803,-5.51127 3.30729,3.08636 -21.82944,9.03949 c 0,0 -1.10199,-3.74782 0.44185,-6.61458"
         id="path20316"
         style="fill:#f2f1f0;stroke-width:0.26458332" />
      <path
         inkscape:connector-curvature="0"
         d="m -66.873497,155.43633 18.080302,5.51127 0.220927,6.83551 c 0,0 -18.301229,-8.15843 -22.931437,-8.81989 l 4.630208,-3.52689"
         id="path20318"
         style="fill:#f2f1f0;stroke-width:0.26458332" />
      <path
         inkscape:connector-curvature="0"
         d="m -177.00631,117.40247 c 0,0 0.40481,-15.14474 3.19749,-18.191422 3.63802,-3.967427 6.72439,0.661458 6.72439,0.661458 0,0 -0.77126,-6.062927 -6.17406,-6.062927 -5.40146,0 -5.07073,9.481341 -5.18054,11.686651 -0.11112,2.2053 1.43272,11.90624 1.43272,11.90624"
         id="path20320"
         style="fill:#d7d8d6;stroke-width:0.26458332" />
      <path
         inkscape:connector-curvature="0"
         d="m -203.30589,146.88632 c 0,0 3.25834,-6.83022 8.05392,-4.56803 0.32279,-3.32052 4.5204,-7.16624 7.82769,-4.74266 l 1.25413,-0.86386 2.05317,-0.29369 c 0,0 0.16536,-5.89624 7.3316,-4.73869 l -2.74505,-3.32052 c 0,0 -4.46485,0.81227 -4.49792,0.96308 -0.0331,0.15082 -1.7145,2.78474 -1.7145,2.78474 l -5.81554,0.28972 c 0,0 -3.60892,2.41962 -3.60892,3.67242 0,0.85725 -0.0318,1.50283 -0.0318,1.50283 0,0 -6.36455,0.81095 -6.39101,0.83079 -1.86663,1.42743 -2.67758,1.76345 -2.57175,3.66448 0.10716,1.92749 0.85593,4.81939 0.85593,4.81939"
         id="path20322"
         style="fill:#d7d8d6;stroke-width:0.26458332" />
      <path
         inkscape:connector-curvature="0"
         d="m -187.05915,142.98107 c -0.55827,-1.86796 -1.72905,-5.23081 0.889,-6.2693 2.61805,-1.03849 10.87173,1.64967 10.87173,1.64967 0,0 -10.94317,-0.68659 -11.76073,4.61963"
         id="path20324"
         style="fill:#d7d8d6;stroke-width:0.26458332" />
      <path
         inkscape:connector-curvature="0"
         d="m -136.67587,70.932382 c -9.91923,1.944687 -16.95185,11.557 -16.00068,22.411531 0.94986,10.857177 9.54617,19.097627 19.65325,19.286797 m 87.09422,-62.427109 c 6.086739,17.150291 6.725708,56.223959 -4.519084,72.760419 -10.152062,14.92911 -20.835937,19.84375 -38.695312,19.84375 -17.859374,0 -28.543254,-4.91464 -38.695314,-19.84375 -11.24479,-16.53646 -10.60582,-55.610128 -4.51908,-72.760419 7.27604,-20.505208 24.58244,-26.625021 42.883665,-26.625021 18.301229,0 36.269083,6.119813 43.545125,26.625021 z m -26.347208,89.627599 0.330729,-21.7633 h -34.946171 l 0.33073,21.43257 m 34.615441,-20.59913 h -34.946171"
         id="path20326"
         style="fill-opacity:0;stroke:#1a1919;stroke-width:2.11666656;stroke-linecap:round;stroke-linejoin:round" />
      <path
         inkscape:connector-curvature="0"
         d="m -143.63706,73.828246 c 0,0 -3.24247,16.34199 3.01625,37.138244"
         id="path20328"
         style="fill-opacity:0;stroke:#1a1919;stroke-width:1.32291663;stroke-linecap:round;stroke-linejoin:round" />
      <path
         inkscape:connector-curvature="0"
         d="m -41.976205,70.903278 c 9.936426,1.857375 17.053718,11.40751 16.196468,22.269978 -0.855927,10.865114 -9.379479,19.179644 -19.483916,19.457454"
         id="path20330"
         style="fill-opacity:0;stroke:#1a1919;stroke-width:2.11666656;stroke-linecap:round;stroke-linejoin:round" />
      <path
         inkscape:connector-curvature="0"
         d="m -34.98856,73.738288 c 0,0 3.382698,16.312885 -2.693458,37.162052"
         id="path20332"
         style="fill-opacity:0;stroke:#1a1919;stroke-width:1.32291663;stroke-linecap:round;stroke-linejoin:round" />
      <path
         inkscape:connector-curvature="0"
         d="m -96.481694,89.242871 c 0,7.758906 -6.289146,14.049379 -14.048056,14.049379 -7.7589,0 -14.04673,-6.290473 -14.04673,-14.049379 0,-7.757583 6.28783,-14.046729 14.04673,-14.046729 7.75891,0 14.048056,6.289146 14.048056,14.046729 z"
         id="path20334"
         style="fill-opacity:0;stroke:#1a1919;stroke-width:2.11666656;stroke-linecap:round;stroke-linejoin:round" />
      <path
         inkscape:connector-curvature="0"
         d="m -101.77865,89.242871 c 0,4.833938 -3.91716,8.752417 -8.7511,8.752417 -4.83261,0 -8.75241,-3.918479 -8.75241,-8.752417 0,-4.832614 3.9198,-8.751094 8.75241,-8.751094 4.83394,0 8.7511,3.91848 8.7511,8.751094"
         id="path20336"
         style="fill:#1a1919;stroke-width:0.26458332" />
      <path
         inkscape:connector-curvature="0"
         d="m -81.80658,89.242871 c 0,7.758906 6.291792,14.049379 14.049375,14.049379 7.757583,0 14.048052,-6.290473 14.048052,-14.049379 0,-7.757583 -6.290469,-14.046729 -14.048052,-14.046729 -7.757583,0 -14.049375,6.289146 -14.049375,14.046729 z"
         id="path20338"
         style="fill-opacity:0;stroke:#1a1919;stroke-width:2.11666656;stroke-linecap:round;stroke-linejoin:round" />
      <path
         inkscape:connector-curvature="0"
         d="m -76.508299,89.242871 c 0,4.833938 3.918479,8.752417 8.751094,8.752417 4.832614,0 8.751093,-3.918479 8.751093,-8.752417 0,-4.832614 -3.918479,-8.751094 -8.751093,-8.751094 -4.832615,0 -8.751094,3.91848 -8.751094,8.751094"
         id="path20340"
         style="fill:#1a1919;stroke-width:0.26458332" />
      <g
         transform="matrix(0.26458333,0,0,0.26458333,-211.73287,13.66332)"
         clip-path="url(#Clip_4)"
         id="g20344">
        <path
           sodipodi:nodetypes="ccccscccccssccccccsccssc"
           inkscape:connector-curvature="0"
           d="m 438.79,513.48 -127.955,43.185 c 0,0 -11.67,128.125 30,269.795 M 255.7,663.12 c -7.79,-11.01 -12.365,-24.445 -12.365,-38.955 0,-37.28 30.22,-67.5 67.5,-67.5 m 0,135 c -7.405,0 -14.53,-1.19 -21.2,-3.39 m 198.075,-200.57 1.105,24.795 c 0,0 -6.865,6.665 -23.52,6.665 h -3.92 c -16.66,0 -23.52,-6.665 -23.52,-6.665 l 0.895,-24.58 m 48.685,25.41 128.4,43.335 c 0,0 14.79,134.375 -26.875,276.045 m 26.875,-141.045 c 37.28,0 67.5,-30.215 67.5,-67.5 0,-37.28 -30.22,-67.5 -67.5,-67.5 M 547.5,535.835 c 0,0 -29.995,26.665 -83.33,26.665 h -1.67 c -53.335,0 -83.33,-26.665 -83.33,-26.665"
           id="path20342"
           style="fill-opacity:0;stroke:#1a1919;stroke-width:8;stroke-linecap:round;stroke-linejoin:round" />
      </g>
      <path
         inkscape:connector-curvature="0"
         d="m -102.32369,83.971048 c 0,1.363927 -1.10332,2.471209 -2.46989,2.471209 -1.36393,0 -2.47253,-1.107282 -2.47253,-2.471209 0,-1.36525 1.1086,-2.471208 2.47253,-2.471208 1.36657,0 2.46989,1.105958 2.46989,2.471208"
         id="path20346"
         style="fill:#fffffe;stroke-width:0.26458332" />
      <path
         inkscape:connector-curvature="0"
         d="m -59.414893,83.971048 c 0,1.363927 -1.105958,2.471209 -2.469885,2.471209 -1.367896,0 -2.475177,-1.107282 -2.475177,-2.471209 0,-1.36525 1.107281,-2.471208 2.475177,-2.471208 1.363927,0 2.469885,1.105958 2.469885,2.471208"
         id="path20348"
         style="fill:#fffffe;stroke-width:0.26458332" />
      <path
         inkscape:connector-curvature="0"
         d="m -168.59256,210.23286 c 0.127,-0.12435 0.25665,-0.24739 0.38894,-0.36645 m 8.38729,-2.794 c 5.65812,0.49874 10.09518,5.24933 10.09518,11.03709 0,6.11849 -4.96094,11.07943 -11.07943,11.07943 -6.11849,0 -11.07943,-4.96094 -11.07943,-11.07943 0,-3.08107 1.25677,-5.86713 3.28745,-7.87664 m -7.20725,-39.54859 c 11.91948,-2.43814 14.50578,-8.22855 15.61571,-15.12756 1.05304,-6.55373 0.39688,-10.60714 -1.45256,-12.6656 -2.53339,-2.81914 -16.3539,-5.62107 -20.6547,-6.4135 -4.3008,-0.7911 -7.20725,1.39039 -4.76779,6.50346 2.50031,5.23743 10.08459,4.77573 14.59574,4.86569 0,0 -4.74663,3.88937 -5.81554,10.00521 -1.86796,10.68917 2.47914,12.8323 2.47914,12.8323 z m -21.18651,-12.37192 c 0,0 -0.27913,6.731 6.36455,11.44191 4.76912,3.38137 9.89939,2.46856 14.82196,0.93001 m -10.81616,-34.07305 c -0.11113,-2.27938 0.19579,-3.85101 1.01996,-5.1726 2.1471,-3.44752 7.56047,-3.33904 8.94689,-1.25942 1.99893,3.00038 2.61805,7.72055 2.61805,7.72055 m -2.33362,14.57589 c 0,0 -2.14445,1.68407 -5.60917,-2.02142 -1.01732,-1.08743 -1.86664,-2.4593 -2.64186,-4.46352 m -1.71847,-13.24636 c -2.4011,-1.14035 -8.34364,-0.127 -8.86487,4.82732 -0.51461,4.85775 2.18678,14.72406 6.31693,17.48631 4.13015,2.76358 7.13846,-0.79771 7.98512,-3.36682 m -8.81327,2.81385 c 0.0728,2.30848 -0.96969,5.92534 -5.5192,4.56273 -4.54952,-1.36128 -8.05657,-8.24441 -9.0051,-14.63145 -0.80565,-5.42132 5.30225,-7.37923 8.71538,-5.40279 m 19.33575,-7.99042 c 0,0 -3.13399,-27.94265 -1.76081,-33.027939 1.45257,-5.373687 9.52236,-5.752041 10.58069,0.456407 1.05833,6.208452 2.75564,42.328042 2.75564,42.328042"
         id="path20350"
         style="fill-opacity:0;stroke:#1a1919;stroke-width:2.11699986;stroke-linecap:round;stroke-linejoin:round;stroke-miterlimit:4;stroke-dasharray:none" />
      <path
         inkscape:connector-curvature="0"
         d="m -172.76239,147.99492 c 0,0 8.00232,-3.65918 11.46572,-5.29034"
         id="path20352"
         style="fill-opacity:0;stroke:#1a1919;stroke-width:1.58749998;stroke-linecap:round;stroke-linejoin:round" />
      <path
         inkscape:connector-curvature="0"
         style="fill-opacity:0;stroke:#1a1919;stroke-width:2.1170001;stroke-linecap:round;stroke-linejoin:round;stroke-miterlimit:4;stroke-dasharray:none"
         id="path20354"
         d="m -170.30838,169.98047 11.05164,40.13597 c 0,0 -2.17884,4.1619 -8.40713,2.45269 l -10.58201,-40.60428 m 28.69009,43.88379 15.875,-22.04773 c 0,0 0,-8.26823 -9.48134,-6.17405 l -12.56771,20.06468 m 112.007385,-11.57552 6.283854,36.71093 m 3.472656,-43.49088 6.779948,43.49088" />
      <path
         inkscape:connector-curvature="0"
         id="path4803"
         d="m -32.581671,242.0322 2.971233,38.62602 14.113353,-3.71403 -7.428081,-36.39761 z"
         style="fill:#fffffe;fill-opacity:1;stroke:#1a1919;stroke-width:2.76999998;stroke-linecap:butt;stroke-linejoin:miter;stroke-miterlimit:4;stroke-dasharray:none;stroke-opacity:1" />
      <ellipse
         ry="10.68908"
         rx="10.662924"
         cy="234.74213"
         cx="-30.68693"
         id="path21222"
         style="opacity:1;fill:#9e9f9e;fill-opacity:1;stroke:#1a1919;stroke-width:2.11666656;stroke-linecap:round;stroke-linejoin:round;stroke-miterlimit:4;stroke-dasharray:none;stroke-opacity:1" />
      <path
         inkscape:connector-curvature="0"
         d="m -121.33268,67.74283 h 19.84375 m 23.811173,0 h 19.84375"
         id="path20358"
         style="fill-opacity:0;stroke:#1a1919;stroke-width:3.96875;stroke-linecap:round" />
      <path
         inkscape:connector-curvature="0"
         d="m -177.67835,115.00403 c 0,0 3.64199,-3.32185 11.41677,-0.99351"
         id="path20360"
         style="fill-opacity:0;stroke:#1a1919;stroke-width:1.58749998;stroke-linecap:round;stroke-linejoin:round" />
      <path
         inkscape:connector-curvature="0"
         d="m -133.8951,56.265205 h 89.291582"
         id="path20362"
         style="fill-opacity:0;stroke:#1a1919;stroke-width:1.58749998" />
      <g
         id="g21235"
         transform="matrix(-0.26458333,0,0,-0.26458333,248.99276,388.97245)">
        <path
           inkscape:connector-curvature="0"
           style="fill:#9e9f9e"
           d="m 1032.7256,439.96602 c 42.915,-9.835 54.205,-29.605 58.61,-53.665 4.515,-24.675 1.91,-43.6 -5.08,-51.38 -9.575,-10.655 -61.81,-21.245 -78.065,-24.24 -16.25501,-2.99 -27.24001,5.255 -18.02001,24.58 9.45,19.795 38.11501,18.05 55.16501,18.39 0,0 -17.94,14.7 -21.98,37.815 -7.06,40.4 9.37,48.5 9.37,48.5"
           id="path21184" />
        <path
           inkscape:connector-curvature="0"
           style="fill:#9e9f9e"
           d="m 991.93059,312.94102 c -0.415,-8.615 0.655,-16.31 3.77,-21.305 8.11501,-13.03 28.57501,-12.62 33.81501,-4.76 7.555,11.34 9.895,29.18 9.895,29.18"
           id="path21186" />
        <path
           inkscape:connector-curvature="0"
           style="fill:#9e9f9e"
           d="m 992.91059,296.57102 c -9.075,-4.31 -31.535,-0.48 -33.505,18.245 -1.945,18.36 8.265,55.65 23.875,66.09 15.61,10.445 26.98001,-3.015 30.18001,-12.725"
           id="path21188" />
        <path
           inkscape:connector-curvature="0"
           style="fill:#9e9f9e"
           d="m 958.19559,320.34102 c -12.9,-7.47 -35.985,-0.07 -32.94,20.42 3.585,24.14 16.84,50.155 34.035,55.3 17.195,5.15 21.135,-8.52 20.86,-17.245"
           id="path21190" />
        <path
           inkscape:connector-curvature="0"
           style="fill:#9e9f9e"
           d="m 952.65059,393.20602 c 0,0 1.19,24.295 24.055,43.245 18.755,15.55 37.41501,9.33 56.02001,3.515 l 38.295,-75.015 -16.93,-22.625 -74.37501,0.94 c 0,0 -28.505,38.635 -27.065,49.94"
           id="path21192" />
        <path
           inkscape:connector-curvature="0"
           style="fill:#9e9f9e"
           d="m 1075.0256,327.01602 c 0,0 0.25,-7.31625 -3.75,-30.78125 -4,-23.465 -31.365,-19.685 -39.99,-1.73 -8.615,17.955 -1.05,-15.30875 -1.05,-15.30875 l 5.415,38.445 39.375,9.375"
           id="path21194" />
        <path
           inkscape:connector-curvature="0"
           style="fill:#d7d8d6;stroke-width:0.92821163"
           d="m 1039.8844,312.02352 c 0,0 -3.9388,-13.37916 6.6162,-23.30022 13.75,-12.91935 25.415,2.15394 25.415,2.15394 0,0 -2.915,-19.74303 -23.335,-19.74303 -20.415,0 -12.915,23.84336 -13.33,31.0246 -0.42,7.18125 -3.125,-10.15625 -3.125,-10.15625"
           id="path21206" />
        <path
           inkscape:connector-curvature="0"
           style="fill:#d7d8d6"
           d="m 928.76559,350.02102 c 0,0 12.315,-25.815 30.44,-17.265 1.22,-12.55 17.085,-27.085 29.585,-17.925 l 4.74,-3.265 7.76001,-1.11 c 0,0 0.625,-22.285 27.71,-17.91 l -10.375,-12.55 c 0,0 -16.875,3.07 -17,3.64 -0.125,0.57 -6.48001,10.525 -6.48001,10.525 l -21.98,1.095 c 0,0 -13.64,9.145 -13.64,13.88 0,3.24 -0.12,5.68 -0.12,5.68 0,0 -24.055,3.065 -24.155,3.14 -7.055,5.395 -10.12,6.665 -9.72,13.85 0.405,7.285 3.235,18.215 3.235,18.215"
           id="path21208" />
        <path
           inkscape:connector-curvature="0"
           style="fill:#d7d8d6"
           d="m 990.17059,335.26102 c -2.11,-7.06 -6.535,-19.77 3.36,-23.695 9.89501,-3.925 41.09001,6.235 41.09001,6.235 0,0 -41.36001,-2.595 -44.45001,17.46"
           id="path21210" />
        <path
           inkscape:connector-curvature="0"
           style="fill-opacity:0;stroke:#1a1919;stroke-width:8;stroke-linecap:round;stroke-linejoin:round"
           d="m 1032.7256,439.96602 c 45.05,-9.215 54.825,-31.1 59.02,-57.175 3.98,-24.77 1.5,-40.09 -5.49,-47.87 -9.575,-10.655 -61.81,-21.245 -78.065,-24.24 -16.25501,-2.99 -27.24001,5.255 -18.02001,24.58 9.45,19.795 38.11501,18.05 55.16501,18.39 0,0 -17.94,14.7 -21.98,37.815 -7.06,40.4 9.37,48.5 9.37,48.5 z m -80.07501,-46.76 c 0,0 -1.055,25.44 24.055,43.245 18.025,12.78 37.41501,9.33 56.02001,3.515 m -40.88001,-128.78 c -0.42,-8.615 0.74,-14.555 3.855,-19.55 8.11501,-13.03 28.57501,-12.62 33.81501,-4.76 7.555,11.34 9.895,29.18 9.895,29.18 m -8.82,55.09 c 0,0 -8.105,6.365 -21.2,-7.64 -3.845,-4.11 -7.055,-9.295 -9.98501,-16.87 m -6.495,-50.065 c -9.075,-4.31 -31.535,-0.48 -33.505,18.245 -1.945,18.36 8.265,55.65 23.875,66.09 15.61,10.445 26.98001,-3.015 30.18001,-12.725 m -33.31001,10.635 c 0.275,8.725 -3.665,22.395 -20.86,17.245 -17.195,-5.145 -30.45,-31.16 -34.035,-55.3 -3.045,-20.49 20.04,-27.89 32.94,-20.42 m 73.08001,-30.2 c 0,0 0,0 0.3763,-4.5175 5.49,-20.31 35.99,-21.74 39.99,1.725 4,23.465 3.3837,39.6675 3.3837,39.6675"
           id="path21214" />
        <path
           inkscape:connector-curvature="0"
           style="fill-opacity:0;stroke:#1a1919;stroke-width:6;stroke-linecap:round;stroke-linejoin:round"
           d="m 1044.2056,354.21102 c 0,0 30.245,-13.83 43.335,-19.995"
           id="path21216" />
      </g>
      <path
         inkscape:connector-curvature="0"
         id="path4611"
         d="m -55.932482,233.48064 2.1716,-7.60061"
         style="fill:none;stroke:#1a1919;stroke-width:2.76999998;stroke-linecap:butt;stroke-linejoin:miter;stroke-miterlimit:4;stroke-dasharray:none;stroke-opacity:1" />
    </g>
  </g>
</svg>
